<mxfile host="app.diagrams.net" modified="2020-07-31T11:18:00.101Z" agent="5.0 (Windows NT 10.0; Win64; x64) AppleWebKit/537.36 (KHTML, like Gecko) Chrome/84.0.4147.105 Safari/537.36" etag="rRmU3kBgjkuB2FwbMFnl" version="13.4.9" type="github">
  <diagram id="kgpKYQtTHZ0yAKxKKP6v" name="Page-1">
    <mxGraphModel dx="1103" dy="622" grid="1" gridSize="10" guides="1" tooltips="1" connect="1" arrows="1" fold="1" page="1" pageScale="1" pageWidth="850" pageHeight="1100" math="0" shadow="0">
      <root>
        <mxCell id="0" />
        <mxCell id="1" parent="0" />
        <mxCell id="6lH783awc_7VwE8D7VBf-51" value="" style="rounded=0;whiteSpace=wrap;html=1;fontFamily=Lucida Console;fontSize=14;fillColor=#FAFAFA;" vertex="1" parent="1">
          <mxGeometry x="10" y="10" width="830" height="510" as="geometry" />
        </mxCell>
        <mxCell id="6lH783awc_7VwE8D7VBf-45" value="fdxbeaconreq" style="rounded=0;whiteSpace=wrap;html=1;fillColor=#EDEDED;fontFamily=Lucida Console;fontSize=14;fontStyle=1;verticalAlign=top;" vertex="1" parent="1">
          <mxGeometry x="20" y="380" width="330" height="130" as="geometry" />
        </mxCell>
        <mxCell id="6lH783awc_7VwE8D7VBf-40" value="fdxbeaconreq" style="rounded=0;whiteSpace=wrap;html=1;fillColor=#EDEDED;fontFamily=Lucida Console;fontSize=14;fontStyle=1;verticalAlign=top;" vertex="1" parent="1">
          <mxGeometry x="20" y="220" width="330" height="130" as="geometry" />
        </mxCell>
        <mxCell id="6lH783awc_7VwE8D7VBf-39" value="fmsonl://reports/cit/bulket.php" style="rounded=0;whiteSpace=wrap;html=1;fillColor=#EDEDED;fontSize=14;fontFamily=Lucida Console;verticalAlign=top;fontStyle=1" vertex="1" parent="1">
          <mxGeometry x="20" y="30" width="300" height="150" as="geometry" />
        </mxCell>
        <mxCell id="6lH783awc_7VwE8D7VBf-38" value="&lt;pre style=&quot;font-size: 14px;&quot;&gt;FDXReport2ET_load&lt;/pre&gt;" style="rounded=0;whiteSpace=wrap;html=1;verticalAlign=top;fontStyle=1;fontSize=14;fillColor=#EDEDED;" vertex="1" parent="1">
          <mxGeometry x="380" y="30" width="200" height="150" as="geometry" />
        </mxCell>
        <mxCell id="6lH783awc_7VwE8D7VBf-19" style="edgeStyle=orthogonalEdgeStyle;rounded=0;orthogonalLoop=1;jettySize=auto;html=1;entryX=0;entryY=0.5;entryDx=0;entryDy=0;startArrow=classic;startFill=0;" edge="1" parent="1" source="6lH783awc_7VwE8D7VBf-1" target="6lH783awc_7VwE8D7VBf-6">
          <mxGeometry relative="1" as="geometry" />
        </mxCell>
        <mxCell id="6lH783awc_7VwE8D7VBf-1" value="User Request" style="rounded=0;whiteSpace=wrap;html=1;" vertex="1" parent="1">
          <mxGeometry x="170" y="90" width="120" height="60" as="geometry" />
        </mxCell>
        <mxCell id="6lH783awc_7VwE8D7VBf-9" style="edgeStyle=orthogonalEdgeStyle;rounded=0;orthogonalLoop=1;jettySize=auto;html=1;entryX=0;entryY=0.5;entryDx=0;entryDy=0;" edge="1" parent="1" source="6lH783awc_7VwE8D7VBf-2" target="6lH783awc_7VwE8D7VBf-8">
          <mxGeometry relative="1" as="geometry" />
        </mxCell>
        <mxCell id="6lH783awc_7VwE8D7VBf-2" value="system request" style="rounded=1;whiteSpace=wrap;html=1;" vertex="1" parent="1">
          <mxGeometry x="40" y="263" width="120" height="60" as="geometry" />
        </mxCell>
        <mxCell id="6lH783awc_7VwE8D7VBf-46" style="edgeStyle=orthogonalEdgeStyle;rounded=0;orthogonalLoop=1;jettySize=auto;html=1;exitX=1;exitY=0.5;exitDx=0;exitDy=0;startArrow=none;startFill=0;fontFamily=Lucida Console;fontSize=14;" edge="1" parent="1" source="6lH783awc_7VwE8D7VBf-3" target="6lH783awc_7VwE8D7VBf-12">
          <mxGeometry relative="1" as="geometry" />
        </mxCell>
        <mxCell id="6lH783awc_7VwE8D7VBf-3" value="CDO Import" style="rounded=1;whiteSpace=wrap;html=1;" vertex="1" parent="1">
          <mxGeometry x="40" y="430" width="120" height="60" as="geometry" />
        </mxCell>
        <mxCell id="6lH783awc_7VwE8D7VBf-47" style="edgeStyle=orthogonalEdgeStyle;rounded=0;orthogonalLoop=1;jettySize=auto;html=1;exitX=1;exitY=0.5;exitDx=0;exitDy=0;entryX=0;entryY=0.5;entryDx=0;entryDy=0;startArrow=none;startFill=0;fontFamily=Lucida Console;fontSize=14;" edge="1" parent="1" source="6lH783awc_7VwE8D7VBf-6" target="6lH783awc_7VwE8D7VBf-4">
          <mxGeometry relative="1" as="geometry" />
        </mxCell>
        <mxCell id="6lH783awc_7VwE8D7VBf-6" value="Report to JSON" style="shape=process;whiteSpace=wrap;html=1;backgroundOutline=1;" vertex="1" parent="1">
          <mxGeometry x="420" y="90" width="120" height="60" as="geometry" />
        </mxCell>
        <mxCell id="6lH783awc_7VwE8D7VBf-20" style="edgeStyle=orthogonalEdgeStyle;rounded=0;orthogonalLoop=1;jettySize=auto;html=1;entryX=0;entryY=0.5;entryDx=0;entryDy=0;startArrow=classic;startFill=0;" edge="1" parent="1" source="6lH783awc_7VwE8D7VBf-7" target="6lH783awc_7VwE8D7VBf-1">
          <mxGeometry relative="1" as="geometry" />
        </mxCell>
        <mxCell id="6lH783awc_7VwE8D7VBf-7" value="DRE (SEP)" style="shape=cylinder;whiteSpace=wrap;html=1;boundedLbl=1;backgroundOutline=1;" vertex="1" parent="1">
          <mxGeometry x="40" y="80" width="60" height="80" as="geometry" />
        </mxCell>
        <mxCell id="6lH783awc_7VwE8D7VBf-11" style="edgeStyle=orthogonalEdgeStyle;rounded=0;orthogonalLoop=1;jettySize=auto;html=1;entryX=0;entryY=0.5;entryDx=0;entryDy=0;" edge="1" parent="1" source="6lH783awc_7VwE8D7VBf-13" target="6lH783awc_7VwE8D7VBf-10">
          <mxGeometry relative="1" as="geometry" />
        </mxCell>
        <mxCell id="6lH783awc_7VwE8D7VBf-52" style="edgeStyle=orthogonalEdgeStyle;rounded=0;orthogonalLoop=1;jettySize=auto;html=1;exitX=1;exitY=0.5;exitDx=0;exitDy=0;entryX=0;entryY=0.25;entryDx=0;entryDy=0;startArrow=none;startFill=0;fontFamily=Lucida Console;fontSize=14;" edge="1" parent="1" source="6lH783awc_7VwE8D7VBf-8" target="6lH783awc_7VwE8D7VBf-13">
          <mxGeometry relative="1" as="geometry" />
        </mxCell>
        <mxCell id="6lH783awc_7VwE8D7VBf-8" value="BEACON" style="shape=cylinder;whiteSpace=wrap;html=1;boundedLbl=1;backgroundOutline=1;" vertex="1" parent="1">
          <mxGeometry x="220" y="253" width="60" height="80" as="geometry" />
        </mxCell>
        <mxCell id="6lH783awc_7VwE8D7VBf-10" value="FMSDB" style="shape=cylinder;whiteSpace=wrap;html=1;boundedLbl=1;backgroundOutline=1;" vertex="1" parent="1">
          <mxGeometry x="640" y="340" width="160" height="100" as="geometry" />
        </mxCell>
        <mxCell id="6lH783awc_7VwE8D7VBf-15" style="edgeStyle=orthogonalEdgeStyle;rounded=0;orthogonalLoop=1;jettySize=auto;html=1;entryX=0;entryY=0.75;entryDx=0;entryDy=0;" edge="1" parent="1" source="6lH783awc_7VwE8D7VBf-12" target="6lH783awc_7VwE8D7VBf-13">
          <mxGeometry relative="1" as="geometry">
            <Array as="points">
              <mxPoint x="380" y="460" />
              <mxPoint x="380" y="405" />
            </Array>
          </mxGeometry>
        </mxCell>
        <mxCell id="6lH783awc_7VwE8D7VBf-12" value="CDO Address to ET data" style="shape=process;whiteSpace=wrap;html=1;backgroundOutline=1;" vertex="1" parent="1">
          <mxGeometry x="190" y="430" width="120" height="60" as="geometry" />
        </mxCell>
        <mxCell id="6lH783awc_7VwE8D7VBf-13" value="(FXD) + ET Import" style="shape=process;whiteSpace=wrap;html=1;backgroundOutline=1;" vertex="1" parent="1">
          <mxGeometry x="470" y="360" width="120" height="60" as="geometry" />
        </mxCell>
        <mxCell id="6lH783awc_7VwE8D7VBf-41" value="&lt;pre style=&quot;font-size: 14px&quot;&gt;etmapper&lt;/pre&gt;" style="rounded=0;whiteSpace=wrap;html=1;verticalAlign=top;fontStyle=1;fontSize=14;fillColor=#EDEDED;" vertex="1" parent="1">
          <mxGeometry x="620" y="30" width="200" height="150" as="geometry" />
        </mxCell>
        <mxCell id="6lH783awc_7VwE8D7VBf-4" value="ET Mapper" style="shape=process;whiteSpace=wrap;html=1;backgroundOutline=1;" vertex="1" parent="1">
          <mxGeometry x="660" y="90" width="120" height="60" as="geometry" />
        </mxCell>
        <mxCell id="6lH783awc_7VwE8D7VBf-44" style="edgeStyle=orthogonalEdgeStyle;rounded=0;orthogonalLoop=1;jettySize=auto;html=1;entryX=0.5;entryY=0;entryDx=0;entryDy=0;startArrow=none;startFill=0;fontFamily=Lucida Console;fontSize=14;exitX=0.5;exitY=1;exitDx=0;exitDy=0;" edge="1" parent="1" source="6lH783awc_7VwE8D7VBf-4" target="6lH783awc_7VwE8D7VBf-13">
          <mxGeometry relative="1" as="geometry" />
        </mxCell>
      </root>
    </mxGraphModel>
  </diagram>
</mxfile>
